#N canvas 1 79 450 300 10;
#X obj 14 12 bng 30 250 50 0 empty empty empty 17 7 0 10 -4034 -1 -1
;
#X obj 48 25 loadbang;
#X obj 14 214 sendOSC;
#X msg 14 99 connect 127.0.0.1 23000;
#X obj 174 99 metro 10;
#X obj 14 51 t b b;
#X obj 174 124 random 1000;
#X obj 174 152 prepend send /pdtester/random;
#X connect 0 0 5 0;
#X connect 1 0 5 0;
#X connect 3 0 2 0;
#X connect 4 0 6 0;
#X connect 5 0 4 0;
#X connect 5 1 3 0;
#X connect 6 0 7 0;
#X connect 7 0 2 0;
